# xmcd CD database file
#
# Track frame offsets:
#	150
#	33500
#	49093
#	67173
#	84415
#	101652
#	137360
#	158809
#	175265
#	194354
#	208362
#	224642
#	247971
#	263126
#
# Disc length: 3745 seconds
#
# Revision: 0
# Processed by: cddbd v1.5.2PL0 Copyright (c) Steve Scherf et al.
# Submitted via: CDex 1.70beta2
#
DISCID=d00e9f0e
DTITLE=Various Artist - Just Jazz The Best
DYEAR=2006
DGENRE=Jazz
TTITLE0=Just the teo of us - Grover Washington Jr.
TTITLE1=Don't you worry 'bout a thing - Sergio Mendez
TTITLE2=Ho! Darling - George Benson
TTITLE3=Sem Contencao - Bebel Gilberto
TTITLE4=What can't speak can't lie - Casiopea
TTITLE5=La costa - Natalie Cole
TTITLE6=Life - Vibrazioni Prod
TTITLE7=Delirio - Astrud Gilberto
TTITLE8=Everything remains the same - Jose Mc Bride
TTITLE9=Aguas de marzo - Elis Regina and Antonio Carlos Jobin
TTITLE10=Jazz music - De Phazz
TTITLE11=Brazasia - Paulinho Da Costa and Yutaka Yokokura
TTITLE12=Con alma - Wes Montgomery
TTITLE13=Watch what happens - Ella Fitzgerald
EXTD=YEAR: 2006
EXTT0=
EXTT1=
EXTT2=
EXTT3=
EXTT4=
EXTT5=
EXTT6=
EXTT7=
EXTT8=
EXTT9=
EXTT10=
EXTT11=
EXTT12=
EXTT13=
PLAYORDER=
